<?xml version="1.0" encoding="UTF-8" ?>
<svg version="1.1" width="32" height="32" xmlns="http://www.w3.org/2000/svg" shape-rendering="crispEdges">
<rect x="16" y="9" width="3" height="1" fill="#181425" />
<rect x="14" y="10" width="2" height="1" fill="#181425" />
<rect x="16" y="10" width="3" height="1" fill="#FEE761" />
<rect x="19" y="10" width="1" height="1" fill="#181425" />
<rect x="12" y="11" width="2" height="1" fill="#181425" />
<rect x="14" y="11" width="3" height="2" fill="#FEE761" />
<rect x="17" y="11" width="1" height="1" fill="#FEAE34" />
<rect x="18" y="11" width="2" height="3" fill="#FEE761" />
<rect x="20" y="11" width="1" height="1" fill="#181425" />
<rect x="10" y="12" width="2" height="1" fill="#181425" />
<rect x="12" y="12" width="1" height="1" fill="#FEAE34" />
<rect x="13" y="12" width="1" height="2" fill="#FEE761" />
<rect x="17" y="12" width="1" height="2" fill="#FEE761" />
<rect x="20" y="12" width="1" height="2" fill="#FEE761" />
<rect x="21" y="12" width="1" height="1" fill="#181425" />
<rect x="9" y="13" width="1" height="10" fill="#181425" />
<rect x="10" y="13" width="3" height="1" fill="#FEE761" />
<rect x="14" y="13" width="1" height="1" fill="#FEE761" />
<rect x="15" y="13" width="1" height="7" fill="#FEAE34" />
<rect x="16" y="13" width="1" height="1" fill="#FEE761" />
<rect x="21" y="13" width="1" height="1" fill="#FEE761" />
<rect x="22" y="13" width="1" height="10" fill="#181425" />
<rect x="10" y="14" width="5" height="1" fill="#FEAE34" />
<rect x="16" y="14" width="6" height="1" fill="#FEAE34" />
<rect x="10" y="15" width="1" height="8" fill="#FEAE34" />
<rect x="11" y="15" width="2" height="2" fill="#F77622" />
<rect x="13" y="15" width="2" height="5" fill="#FEAE34" />
<rect x="16" y="15" width="1" height="1" fill="#F77622" />
<rect x="17" y="15" width="5" height="1" fill="#FEAE34" />
<rect x="16" y="16" width="2" height="7" fill="#FEAE34" />
<rect x="18" y="16" width="2" height="2" fill="#F77622" />
<rect x="20" y="16" width="2" height="5" fill="#FEAE34" />
<rect x="11" y="17" width="2" height="1" fill="#FEAE34" />
<rect x="11" y="18" width="1" height="4" fill="#FEAE34" />
<rect x="12" y="18" width="1" height="1" fill="#F77622" />
<rect x="18" y="18" width="2" height="4" fill="#FEAE34" />
<rect x="12" y="19" width="1" height="4" fill="#FEAE34" />
<rect x="13" y="20" width="1" height="3" fill="#FEAE34" />
<rect x="14" y="20" width="2" height="2" fill="#F77622" />
<rect x="20" y="21" width="1" height="2" fill="#FEAE34" />
<rect x="21" y="21" width="1" height="2" fill="#F77622" />
<rect x="11" y="22" width="1" height="1" fill="#F77622" />
<rect x="14" y="22" width="2" height="1" fill="#FEAE34" />
<rect x="18" y="22" width="1" height="1" fill="#F77622" />
<rect x="19" y="22" width="1" height="1" fill="#FEAE34" />
<rect x="10" y="23" width="12" height="1" fill="#181425" />
</svg>
