<?xml version="1.0" encoding="UTF-8" ?>
<svg version="1.1" width="32" height="32" xmlns="http://www.w3.org/2000/svg" shape-rendering="crispEdges">
<rect x="8" y="7" width="1" height="1" fill="#181425" />
<rect x="10" y="7" width="1" height="1" fill="#181425" />
<rect x="13" y="7" width="3" height="1" fill="#181425" />
<rect x="17" y="7" width="3" height="1" fill="#181425" />
<rect x="7" y="8" width="1" height="1" fill="#181425" />
<rect x="8" y="8" width="1" height="5" fill="#63C74D" />
<rect x="9" y="8" width="1" height="1" fill="#181425" />
<rect x="10" y="8" width="1" height="5" fill="#63C74D" />
<rect x="11" y="8" width="3" height="1" fill="#181425" />
<rect x="14" y="8" width="2" height="1" fill="#63C74D" />
<rect x="16" y="8" width="1" height="1" fill="#181425" />
<rect x="17" y="8" width="3" height="1" fill="#63C74D" />
<rect x="20" y="8" width="1" height="2" fill="#181425" />
<rect x="6" y="9" width="1" height="2" fill="#181425" />
<rect x="7" y="9" width="1" height="2" fill="#63C74D" />
<rect x="9" y="9" width="1" height="3" fill="#63C74D" />
<rect x="11" y="9" width="3" height="2" fill="#63C74D" />
<rect x="14" y="9" width="1" height="4" fill="#181425" />
<rect x="15" y="9" width="1" height="1" fill="#63C74D" />
<rect x="16" y="9" width="1" height="1" fill="#3E8948" />
<rect x="17" y="9" width="3" height="1" fill="#181425" />
<rect x="21" y="9" width="1" height="2" fill="#181425" />
<rect x="15" y="10" width="1" height="1" fill="#3E8948" />
<rect x="16" y="10" width="1" height="1" fill="#181425" />
<rect x="17" y="10" width="4" height="2" fill="#63C74D" />
<rect x="22" y="10" width="1" height="2" fill="#181425" />
<rect x="7" y="11" width="1" height="3" fill="#181425" />
<rect x="11" y="11" width="2" height="1" fill="#63C74D" />
<rect x="13" y="11" width="1" height="2" fill="#3E8948" />
<rect x="15" y="11" width="1" height="1" fill="#181425" />
<rect x="16" y="11" width="1" height="1" fill="#63C74D" />
<rect x="21" y="11" width="1" height="2" fill="#63C74D" />
<rect x="9" y="12" width="1" height="2" fill="#F77622" />
<rect x="11" y="12" width="1" height="1" fill="#63C74D" />
<rect x="12" y="12" width="1" height="1" fill="#3E8948" />
<rect x="15" y="12" width="2" height="2" fill="#F77622" />
<rect x="17" y="12" width="2" height="1" fill="#63C74D" />
<rect x="19" y="12" width="1" height="2" fill="#9E2835" />
<rect x="20" y="12" width="1" height="1" fill="#63C74D" />
<rect x="22" y="12" width="1" height="2" fill="#3E8948" />
<rect x="23" y="12" width="1" height="2" fill="#181425" />
<rect x="4" y="13" width="3" height="1" fill="#181425" />
<rect x="8" y="13" width="1" height="1" fill="#181425" />
<rect x="10" y="13" width="1" height="1" fill="#3E8948" />
<rect x="11" y="13" width="2" height="1" fill="#9E2835" />
<rect x="13" y="13" width="1" height="2" fill="#181425" />
<rect x="14" y="13" width="1" height="1" fill="#F77622" />
<rect x="17" y="13" width="1" height="1" fill="#3E8948" />
<rect x="18" y="13" width="1" height="1" fill="#9E2835" />
<rect x="20" y="13" width="1" height="1" fill="#9E2835" />
<rect x="21" y="13" width="1" height="1" fill="#3E8948" />
<rect x="24" y="13" width="4" height="1" fill="#181425" />
<rect x="4" y="14" width="1" height="4" fill="#181425" />
<rect x="5" y="14" width="4" height="1" fill="#B86F50" />
<rect x="9" y="14" width="4" height="1" fill="#181425" />
<rect x="14" y="14" width="9" height="1" fill="#181425" />
<rect x="23" y="14" width="4" height="1" fill="#B86F50" />
<rect x="27" y="14" width="1" height="4" fill="#181425" />
<rect x="5" y="15" width="4" height="2" fill="#743F39" />
<rect x="9" y="15" width="14" height="1" fill="#B86F50" />
<rect x="23" y="15" width="4" height="2" fill="#743F39" />
<rect x="9" y="16" width="14" height="2" fill="#743F39" />
<rect x="5" y="17" width="4" height="1" fill="#3F2832" />
<rect x="23" y="17" width="4" height="1" fill="#3F2832" />
<rect x="5" y="18" width="1" height="2" fill="#181425" />
<rect x="6" y="18" width="3" height="1" fill="#743F39" />
<rect x="9" y="18" width="14" height="1" fill="#3F2832" />
<rect x="23" y="18" width="3" height="1" fill="#743F39" />
<rect x="26" y="18" width="1" height="2" fill="#181425" />
<rect x="6" y="19" width="1" height="1" fill="#3F2832" />
<rect x="7" y="19" width="18" height="1" fill="#743F39" />
<rect x="25" y="19" width="1" height="1" fill="#3F2832" />
<rect x="6" y="20" width="1" height="2" fill="#181425" />
<rect x="7" y="20" width="1" height="2" fill="#3F2832" />
<rect x="8" y="20" width="16" height="1" fill="#743F39" />
<rect x="24" y="20" width="1" height="2" fill="#3F2832" />
<rect x="25" y="20" width="1" height="2" fill="#181425" />
<rect x="8" y="21" width="1" height="2" fill="#3F2832" />
<rect x="9" y="21" width="14" height="1" fill="#743F39" />
<rect x="23" y="21" width="1" height="2" fill="#3F2832" />
<rect x="7" y="22" width="1" height="1" fill="#181425" />
<rect x="9" y="22" width="1" height="2" fill="#3F2832" />
<rect x="10" y="22" width="12" height="1" fill="#743F39" />
<rect x="22" y="22" width="1" height="2" fill="#3F2832" />
<rect x="24" y="22" width="1" height="1" fill="#181425" />
<rect x="8" y="23" width="1" height="1" fill="#181425" />
<rect x="10" y="23" width="3" height="1" fill="#3F2832" />
<rect x="13" y="23" width="6" height="1" fill="#743F39" />
<rect x="19" y="23" width="3" height="1" fill="#3F2832" />
<rect x="23" y="23" width="1" height="1" fill="#181425" />
<rect x="9" y="24" width="2" height="1" fill="#181425" />
<rect x="11" y="24" width="10" height="1" fill="#3F2832" />
<rect x="21" y="24" width="2" height="1" fill="#181425" />
<rect x="11" y="25" width="10" height="1" fill="#181425" />
</svg>