<?xml version="1.0" encoding="UTF-8" ?>
<svg version="1.1" width="32" height="32" xmlns="http://www.w3.org/2000/svg" shape-rendering="crispEdges">
<rect x="11" y="8" width="10" height="1" fill="#181425" />
<rect x="8" y="9" width="3" height="1" fill="#181425" />
<rect x="11" y="9" width="10" height="1" fill="#B86F50" />
<rect x="21" y="9" width="3" height="1" fill="#181425" />
<rect x="6" y="10" width="2" height="1" fill="#181425" />
<rect x="8" y="10" width="3" height="1" fill="#B86F50" />
<rect x="11" y="10" width="10" height="1" fill="#3E8948" />
<rect x="21" y="10" width="3" height="1" fill="#B86F50" />
<rect x="24" y="10" width="2" height="1" fill="#181425" />
<rect x="5" y="11" width="1" height="10" fill="#181425" />
<rect x="6" y="11" width="3" height="1" fill="#B86F50" />
<rect x="9" y="11" width="3" height="1" fill="#3E8948" />
<rect x="12" y="11" width="1" height="1" fill="#265C42" />
<rect x="13" y="11" width="4" height="3" fill="#3E8948" />
<rect x="17" y="11" width="1" height="1" fill="#F77622" />
<rect x="18" y="11" width="5" height="2" fill="#3E8948" />
<rect x="23" y="11" width="3" height="1" fill="#B86F50" />
<rect x="26" y="11" width="1" height="10" fill="#181425" />
<rect x="6" y="12" width="1" height="3" fill="#B86F50" />
<rect x="7" y="12" width="2" height="1" fill="#3E8948" />
<rect x="9" y="12" width="1" height="1" fill="#F77622" />
<rect x="10" y="12" width="3" height="2" fill="#3E8948" />
<rect x="17" y="12" width="1" height="3" fill="#3E8948" />
<rect x="23" y="12" width="2" height="1" fill="#3E8948" />
<rect x="25" y="12" width="1" height="3" fill="#B86F50" />
<rect x="7" y="13" width="1" height="3" fill="#B86F50" />
<rect x="8" y="13" width="2" height="1" fill="#3E8948" />
<rect x="18" y="13" width="1" height="2" fill="#3E8948" />
<rect x="19" y="13" width="1" height="1" fill="#265C42" />
<rect x="20" y="13" width="4" height="1" fill="#3E8948" />
<rect x="24" y="13" width="1" height="3" fill="#B86F50" />
<rect x="8" y="14" width="3" height="2" fill="#B86F50" />
<rect x="11" y="14" width="3" height="1" fill="#3E8948" />
<rect x="14" y="14" width="1" height="1" fill="#F77622" />
<rect x="15" y="14" width="2" height="1" fill="#3E8948" />
<rect x="19" y="14" width="2" height="1" fill="#3E8948" />
<rect x="21" y="14" width="3" height="2" fill="#B86F50" />
<rect x="6" y="15" width="1" height="6" fill="#743F39" />
<rect x="11" y="15" width="10" height="2" fill="#B86F50" />
<rect x="25" y="15" width="1" height="6" fill="#743F39" />
<rect x="7" y="16" width="2" height="6" fill="#743F39" />
<rect x="9" y="16" width="2" height="1" fill="#B86F50" />
<rect x="21" y="16" width="2" height="1" fill="#B86F50" />
<rect x="23" y="16" width="2" height="6" fill="#743F39" />
<rect x="9" y="17" width="14" height="6" fill="#743F39" />
<rect x="6" y="21" width="1" height="1" fill="#181425" />
<rect x="25" y="21" width="1" height="1" fill="#181425" />
<rect x="7" y="22" width="2" height="1" fill="#181425" />
<rect x="23" y="22" width="2" height="1" fill="#181425" />
<rect x="9" y="23" width="3" height="1" fill="#181425" />
<rect x="12" y="23" width="8" height="1" fill="#743F39" />
<rect x="20" y="23" width="3" height="1" fill="#181425" />
<rect x="12" y="24" width="8" height="1" fill="#181425" />
</svg>
