<?xml version="1.0" encoding="UTF-8" ?>
<svg version="1.1" width="32" height="32" xmlns="http://www.w3.org/2000/svg" shape-rendering="crispEdges">
<rect x="13" y="10" width="6" height="1" fill="#181425" />
<rect x="12" y="11" width="1" height="1" fill="#181425" />
<rect x="13" y="11" width="6" height="2" fill="#FFFFFF" />
<rect x="19" y="11" width="1" height="1" fill="#181425" />
<rect x="11" y="12" width="1" height="1" fill="#181425" />
<rect x="12" y="12" width="1" height="2" fill="#FFFFFF" />
<rect x="19" y="12" width="1" height="2" fill="#FFFFFF" />
<rect x="20" y="12" width="1" height="1" fill="#181425" />
<rect x="10" y="13" width="1" height="2" fill="#181425" />
<rect x="11" y="13" width="1" height="5" fill="#FFFFFF" />
<rect x="13" y="13" width="1" height="1" fill="#C0CBDC" />
<rect x="14" y="13" width="5" height="3" fill="#FFFFFF" />
<rect x="20" y="13" width="1" height="2" fill="#FFFFFF" />
<rect x="21" y="13" width="1" height="2" fill="#181425" />
<rect x="12" y="14" width="1" height="1" fill="#C0CBDC" />
<rect x="13" y="14" width="1" height="2" fill="#FFFFFF" />
<rect x="19" y="14" width="1" height="1" fill="#C0CBDC" />
<rect x="9" y="15" width="1" height="4" fill="#181425" />
<rect x="10" y="15" width="1" height="2" fill="#FFFFFF" />
<rect x="12" y="15" width="1" height="2" fill="#FFFFFF" />
<rect x="19" y="15" width="1" height="2" fill="#FFFFFF" />
<rect x="20" y="15" width="1" height="1" fill="#C0CBDC" />
<rect x="21" y="15" width="1" height="2" fill="#FFFFFF" />
<rect x="22" y="15" width="1" height="4" fill="#181425" />
<rect x="13" y="16" width="6" height="1" fill="#265C42" />
<rect x="20" y="16" width="1" height="2" fill="#FFFFFF" />
<rect x="10" y="17" width="1" height="2" fill="#C0CBDC" />
<rect x="12" y="17" width="1" height="1" fill="#C0CBDC" />
<rect x="13" y="17" width="1" height="1" fill="#193C3E" />
<rect x="14" y="17" width="4" height="1" fill="#265C42" />
<rect x="18" y="17" width="1" height="1" fill="#193C3E" />
<rect x="19" y="17" width="1" height="1" fill="#C0CBDC" />
<rect x="21" y="17" width="1" height="2" fill="#C0CBDC" />
<rect x="11" y="18" width="1" height="2" fill="#C0CBDC" />
<rect x="12" y="18" width="1" height="1" fill="#FFFFFF" />
<rect x="13" y="18" width="1" height="1" fill="#265C42" />
<rect x="14" y="18" width="1" height="1" fill="#193C3E" />
<rect x="15" y="18" width="2" height="1" fill="#265C42" />
<rect x="17" y="18" width="1" height="1" fill="#193C3E" />
<rect x="18" y="18" width="1" height="1" fill="#265C42" />
<rect x="19" y="18" width="1" height="1" fill="#FFFFFF" />
<rect x="20" y="18" width="1" height="2" fill="#C0CBDC" />
<rect x="10" y="19" width="1" height="1" fill="#181425" />
<rect x="12" y="19" width="1" height="2" fill="#C0CBDC" />
<rect x="13" y="19" width="1" height="2" fill="#193C3E" />
<rect x="14" y="19" width="1" height="1" fill="#265C42" />
<rect x="15" y="19" width="2" height="2" fill="#193C3E" />
<rect x="17" y="19" width="1" height="1" fill="#265C42" />
<rect x="18" y="19" width="1" height="2" fill="#193C3E" />
<rect x="19" y="19" width="1" height="2" fill="#C0CBDC" />
<rect x="21" y="19" width="1" height="1" fill="#181425" />
<rect x="11" y="20" width="1" height="1" fill="#181425" />
<rect x="14" y="20" width="1" height="1" fill="#193C3E" />
<rect x="17" y="20" width="1" height="1" fill="#193C3E" />
<rect x="20" y="20" width="1" height="1" fill="#181425" />
<rect x="12" y="21" width="8" height="1" fill="#181425" />
</svg>