<?xml version="1.0" encoding="UTF-8" ?>
<svg version="1.1" width="32" height="32" xmlns="http://www.w3.org/2000/svg" shape-rendering="crispEdges">
<rect x="14" y="7" width="5" height="1" fill="#181425" />
<rect x="12" y="8" width="2" height="1" fill="#181425" />
<rect x="14" y="8" width="5" height="1" fill="#3F2832" />
<rect x="19" y="8" width="2" height="1" fill="#181425" />
<rect x="11" y="9" width="1" height="1" fill="#181425" />
<rect x="12" y="9" width="2" height="1" fill="#3F2832" />
<rect x="14" y="9" width="1" height="1" fill="#743F39" />
<rect x="15" y="9" width="4" height="2" fill="#E4A672" />
<rect x="19" y="9" width="2" height="1" fill="#3F2832" />
<rect x="21" y="9" width="1" height="1" fill="#181425" />
<rect x="10" y="10" width="1" height="1" fill="#181425" />
<rect x="11" y="10" width="1" height="1" fill="#3F2832" />
<rect x="12" y="10" width="1" height="1" fill="#743F39" />
<rect x="13" y="10" width="2" height="3" fill="#E4A672" />
<rect x="19" y="10" width="2" height="1" fill="#E4A672" />
<rect x="21" y="10" width="1" height="1" fill="#3F2832" />
<rect x="22" y="10" width="1" height="1" fill="#181425" />
<rect x="9" y="11" width="1" height="1" fill="#181425" />
<rect x="10" y="11" width="1" height="1" fill="#3F2832" />
<rect x="11" y="11" width="1" height="1" fill="#743F39" />
<rect x="12" y="11" width="1" height="3" fill="#E4A672" />
<rect x="15" y="11" width="1" height="3" fill="#E4A672" />
<rect x="16" y="11" width="1" height="1" fill="#3F2832" />
<rect x="17" y="11" width="1" height="7" fill="#E4A672" />
<rect x="18" y="11" width="1" height="2" fill="#3F2832" />
<rect x="19" y="11" width="1" height="1" fill="#743F39" />
<rect x="20" y="11" width="2" height="2" fill="#E4A672" />
<rect x="22" y="11" width="1" height="1" fill="#3F2832" />
<rect x="23" y="11" width="1" height="1" fill="#181425" />
<rect x="8" y="12" width="1" height="2" fill="#181425" />
<rect x="9" y="12" width="1" height="2" fill="#3F2832" />
<rect x="10" y="12" width="1" height="1" fill="#743F39" />
<rect x="11" y="12" width="1" height="9" fill="#E4A672" />
<rect x="16" y="12" width="1" height="6" fill="#E4A672" />
<rect x="19" y="12" width="1" height="1" fill="#3F2832" />
<rect x="22" y="12" width="1" height="9" fill="#E4A672" />
<rect x="23" y="12" width="1" height="2" fill="#3F2832" />
<rect x="24" y="12" width="1" height="2" fill="#181425" />
<rect x="10" y="13" width="1" height="6" fill="#E4A672" />
<rect x="13" y="13" width="2" height="1" fill="#3F2832" />
<rect x="18" y="13" width="3" height="1" fill="#E4A672" />
<rect x="21" y="13" width="1" height="1" fill="#3F2832" />
<rect x="7" y="14" width="1" height="5" fill="#181425" />
<rect x="8" y="14" width="1" height="5" fill="#3F2832" />
<rect x="9" y="14" width="1" height="5" fill="#743F39" />
<rect x="12" y="14" width="2" height="2" fill="#3F2832" />
<rect x="14" y="14" width="1" height="1" fill="#743F39" />
<rect x="15" y="14" width="1" height="2" fill="#3F2832" />
<rect x="18" y="14" width="1" height="9" fill="#E4A672" />
<rect x="19" y="14" width="1" height="1" fill="#3F2832" />
<rect x="20" y="14" width="2" height="3" fill="#E4A672" />
<rect x="23" y="14" width="1" height="5" fill="#E4A672" />
<rect x="24" y="14" width="1" height="5" fill="#3F2832" />
<rect x="25" y="14" width="1" height="5" fill="#181425" />
<rect x="14" y="15" width="1" height="2" fill="#3F2832" />
<rect x="19" y="15" width="1" height="7" fill="#E4A672" />
<rect x="12" y="16" width="1" height="6" fill="#E4A672" />
<rect x="13" y="16" width="1" height="1" fill="#3F2832" />
<rect x="15" y="16" width="1" height="7" fill="#E4A672" />
<rect x="13" y="17" width="2" height="5" fill="#E4A672" />
<rect x="20" y="17" width="1" height="2" fill="#3F2832" />
<rect x="21" y="17" width="1" height="1" fill="#743F39" />
<rect x="16" y="18" width="1" height="2" fill="#3F2832" />
<rect x="17" y="18" width="1" height="1" fill="#743F39" />
<rect x="21" y="18" width="1" height="1" fill="#3F2832" />
<rect x="8" y="19" width="1" height="2" fill="#181425" />
<rect x="9" y="19" width="1" height="2" fill="#3F2832" />
<rect x="10" y="19" width="1" height="2" fill="#743F39" />
<rect x="17" y="19" width="1" height="1" fill="#3F2832" />
<rect x="20" y="19" width="2" height="2" fill="#E4A672" />
<rect x="23" y="19" width="1" height="2" fill="#3F2832" />
<rect x="24" y="19" width="1" height="2" fill="#181425" />
<rect x="16" y="20" width="2" height="3" fill="#E4A672" />
<rect x="9" y="21" width="1" height="1" fill="#181425" />
<rect x="10" y="21" width="1" height="1" fill="#3F2832" />
<rect x="11" y="21" width="1" height="1" fill="#743F39" />
<rect x="20" y="21" width="1" height="1" fill="#E4A672" />
<rect x="21" y="21" width="1" height="1" fill="#743F39" />
<rect x="22" y="21" width="1" height="1" fill="#3F2832" />
<rect x="23" y="21" width="1" height="1" fill="#181425" />
<rect x="10" y="22" width="1" height="1" fill="#181425" />
<rect x="11" y="22" width="1" height="1" fill="#3F2832" />
<rect x="12" y="22" width="2" height="1" fill="#743F39" />
<rect x="14" y="22" width="1" height="1" fill="#E4A672" />
<rect x="19" y="22" width="2" height="1" fill="#743F39" />
<rect x="21" y="22" width="1" height="1" fill="#3F2832" />
<rect x="22" y="22" width="1" height="1" fill="#181425" />
<rect x="11" y="23" width="1" height="1" fill="#181425" />
<rect x="12" y="23" width="2" height="1" fill="#3F2832" />
<rect x="14" y="23" width="5" height="1" fill="#743F39" />
<rect x="19" y="23" width="2" height="1" fill="#3F2832" />
<rect x="21" y="23" width="1" height="1" fill="#181425" />
<rect x="12" y="24" width="2" height="1" fill="#181425" />
<rect x="14" y="24" width="5" height="1" fill="#3F2832" />
<rect x="19" y="24" width="2" height="1" fill="#181425" />
<rect x="14" y="25" width="5" height="1" fill="#181425" />
</svg>
