<?xml version="1.0" encoding="UTF-8" ?>
<svg version="1.1" width="32" height="32" xmlns="http://www.w3.org/2000/svg" shape-rendering="crispEdges">
<rect x="13" y="9" width="6" height="1" fill="#181425" />
<rect x="11" y="10" width="2" height="1" fill="#181425" />
<rect x="13" y="10" width="6" height="1" fill="#FEAE34" />
<rect x="19" y="10" width="2" height="1" fill="#181425" />
<rect x="10" y="11" width="1" height="1" fill="#181425" />
<rect x="11" y="11" width="2" height="1" fill="#FEAE34" />
<rect x="13" y="11" width="1" height="2" fill="#9E2835" />
<rect x="14" y="11" width="1" height="4" fill="#FEAE34" />
<rect x="15" y="11" width="2" height="3" fill="#9E2835" />
<rect x="17" y="11" width="1" height="4" fill="#FEAE34" />
<rect x="18" y="11" width="1" height="2" fill="#9E2835" />
<rect x="19" y="11" width="2" height="1" fill="#FEAE34" />
<rect x="21" y="11" width="1" height="1" fill="#181425" />
<rect x="9" y="12" width="1" height="1" fill="#181425" />
<rect x="10" y="12" width="2" height="3" fill="#FEAE34" />
<rect x="12" y="12" width="1" height="2" fill="#9E2835" />
<rect x="19" y="12" width="1" height="2" fill="#9E2835" />
<rect x="20" y="12" width="2" height="3" fill="#FEAE34" />
<rect x="22" y="12" width="1" height="1" fill="#181425" />
<rect x="8" y="13" width="1" height="1" fill="#181425" />
<rect x="9" y="13" width="1" height="2" fill="#FEAE34" />
<rect x="13" y="13" width="1" height="2" fill="#FEAE34" />
<rect x="18" y="13" width="1" height="2" fill="#FEAE34" />
<rect x="22" y="13" width="1" height="2" fill="#FEAE34" />
<rect x="23" y="13" width="1" height="1" fill="#181425" />
<rect x="7" y="14" width="1" height="1" fill="#181425" />
<rect x="8" y="14" width="1" height="1" fill="#FEAE34" />
<rect x="12" y="14" width="1" height="1" fill="#FEAE34" />
<rect x="15" y="14" width="2" height="1" fill="#FEAE34" />
<rect x="19" y="14" width="1" height="1" fill="#FEAE34" />
<rect x="23" y="14" width="1" height="1" fill="#FEAE34" />
<rect x="24" y="14" width="1" height="1" fill="#181425" />
<rect x="6" y="15" width="1" height="2" fill="#181425" />
<rect x="7" y="15" width="18" height="1" fill="#D87644" />
<rect x="25" y="15" width="1" height="2" fill="#181425" />
<rect x="7" y="16" width="1" height="1" fill="#FEAE34" />
<rect x="8" y="16" width="3" height="1" fill="#D87644" />
<rect x="11" y="16" width="1" height="1" fill="#FEAE34" />
<rect x="12" y="16" width="3" height="1" fill="#D87644" />
<rect x="15" y="16" width="2" height="1" fill="#FEAE34" />
<rect x="17" y="16" width="3" height="1" fill="#D87644" />
<rect x="20" y="16" width="1" height="1" fill="#FEAE34" />
<rect x="21" y="16" width="3" height="1" fill="#D87644" />
<rect x="24" y="16" width="1" height="1" fill="#FEAE34" />
<rect x="7" y="17" width="1" height="1" fill="#181425" />
<rect x="8" y="17" width="3" height="1" fill="#FEAE34" />
<rect x="11" y="17" width="1" height="5" fill="#3F2832" />
<rect x="12" y="17" width="3" height="1" fill="#FEAE34" />
<rect x="15" y="17" width="2" height="5" fill="#3F2832" />
<rect x="17" y="17" width="3" height="1" fill="#FEAE34" />
<rect x="20" y="17" width="1" height="5" fill="#3F2832" />
<rect x="21" y="17" width="3" height="1" fill="#FEAE34" />
<rect x="24" y="17" width="1" height="1" fill="#181425" />
<rect x="8" y="18" width="1" height="2" fill="#181425" />
<rect x="9" y="18" width="2" height="2" fill="#3F2832" />
<rect x="12" y="18" width="3" height="4" fill="#3F2832" />
<rect x="17" y="18" width="3" height="4" fill="#3F2832" />
<rect x="21" y="18" width="2" height="2" fill="#3F2832" />
<rect x="23" y="18" width="1" height="2" fill="#181425" />
<rect x="9" y="20" width="1" height="2" fill="#181425" />
<rect x="10" y="20" width="1" height="2" fill="#3F2832" />
<rect x="21" y="20" width="1" height="2" fill="#3F2832" />
<rect x="22" y="20" width="1" height="2" fill="#181425" />
<rect x="10" y="22" width="12" height="1" fill="#181425" />
</svg>