<?xml version="1.0" encoding="UTF-8" ?>
<svg version="1.1" width="32" height="32" xmlns="http://www.w3.org/2000/svg" shape-rendering="crispEdges">
<rect x="15" y="9" width="7" height="1" fill="#181425" />
<rect x="14" y="10" width="1" height="1" fill="#181425" />
<rect x="15" y="10" width="7" height="1" fill="#743F39" />
<rect x="22" y="10" width="1" height="1" fill="#181425" />
<rect x="13" y="11" width="1" height="1" fill="#181425" />
<rect x="14" y="11" width="1" height="1" fill="#743F39" />
<rect x="15" y="11" width="2" height="1" fill="#BE4A2F" />
<rect x="17" y="11" width="1" height="1" fill="#743F39" />
<rect x="18" y="11" width="1" height="3" fill="#9E2835" />
<rect x="19" y="11" width="1" height="4" fill="#E43B44" />
<rect x="20" y="11" width="2" height="2" fill="#9E2835" />
<rect x="22" y="11" width="1" height="1" fill="#743F39" />
<rect x="23" y="11" width="1" height="1" fill="#181425" />
<rect x="12" y="12" width="1" height="1" fill="#181425" />
<rect x="13" y="12" width="1" height="1" fill="#743F39" />
<rect x="14" y="12" width="2" height="8" fill="#BE4A2F" />
<rect x="16" y="12" width="1" height="3" fill="#743F39" />
<rect x="17" y="12" width="1" height="1" fill="#9E2835" />
<rect x="22" y="12" width="1" height="1" fill="#E43B44" />
<rect x="23" y="12" width="1" height="3" fill="#743F39" />
<rect x="24" y="12" width="1" height="3" fill="#181425" />
<rect x="9" y="13" width="1" height="1" fill="#181425" />
<rect x="11" y="13" width="1" height="1" fill="#181425" />
<rect x="12" y="13" width="1" height="1" fill="#743F39" />
<rect x="13" y="13" width="1" height="7" fill="#BE4A2F" />
<rect x="17" y="13" width="1" height="1" fill="#E43B44" />
<rect x="20" y="13" width="1" height="1" fill="#9E2835" />
<rect x="21" y="13" width="1" height="1" fill="#E43B44" />
<rect x="22" y="13" width="1" height="2" fill="#9E2835" />
<rect x="8" y="14" width="1" height="4" fill="#181425" />
<rect x="9" y="14" width="1" height="4" fill="#FFFFFF" />
<rect x="10" y="14" width="1" height="1" fill="#181425" />
<rect x="11" y="14" width="1" height="5" fill="#743F39" />
<rect x="12" y="14" width="1" height="5" fill="#BE4A2F" />
<rect x="17" y="14" width="1" height="1" fill="#9E2835" />
<rect x="18" y="14" width="1" height="1" fill="#E43B44" />
<rect x="20" y="14" width="1" height="1" fill="#E43B44" />
<rect x="21" y="14" width="1" height="1" fill="#9E2835" />
<rect x="10" y="15" width="1" height="2" fill="#FFFFFF" />
<rect x="16" y="15" width="1" height="2" fill="#BE4A2F" />
<rect x="17" y="15" width="1" height="2" fill="#743F39" />
<rect x="18" y="15" width="1" height="3" fill="#9E2835" />
<rect x="19" y="15" width="2" height="2" fill="#FFFFFF" />
<rect x="21" y="15" width="1" height="1" fill="#E43B44" />
<rect x="22" y="15" width="1" height="2" fill="#743F39" />
<rect x="23" y="15" width="1" height="2" fill="#181425" />
<rect x="21" y="16" width="1" height="2" fill="#9E2835" />
<rect x="10" y="17" width="1" height="2" fill="#181425" />
<rect x="16" y="17" width="1" height="3" fill="#743F39" />
<rect x="17" y="17" width="1" height="1" fill="#E43B44" />
<rect x="19" y="17" width="2" height="2" fill="#9E2835" />
<rect x="22" y="17" width="1" height="2" fill="#9E2835" />
<rect x="23" y="17" width="1" height="4" fill="#743F39" />
<rect x="24" y="17" width="1" height="4" fill="#181425" />
<rect x="9" y="18" width="1" height="1" fill="#181425" />
<rect x="17" y="18" width="1" height="2" fill="#9E2835" />
<rect x="18" y="18" width="1" height="1" fill="#E43B44" />
<rect x="21" y="18" width="1" height="3" fill="#E43B44" />
<rect x="11" y="19" width="1" height="1" fill="#181425" />
<rect x="12" y="19" width="1" height="1" fill="#743F39" />
<rect x="18" y="19" width="1" height="2" fill="#9E2835" />
<rect x="19" y="19" width="1" height="2" fill="#E43B44" />
<rect x="20" y="19" width="1" height="2" fill="#9E2835" />
<rect x="22" y="19" width="1" height="1" fill="#E43B44" />
<rect x="12" y="20" width="1" height="1" fill="#181425" />
<rect x="13" y="20" width="2" height="1" fill="#743F39" />
<rect x="15" y="20" width="2" height="1" fill="#BE4A2F" />
<rect x="17" y="20" width="1" height="2" fill="#743F39" />
<rect x="22" y="20" width="1" height="2" fill="#743F39" />
<rect x="13" y="21" width="2" height="1" fill="#181425" />
<rect x="15" y="21" width="2" height="1" fill="#743F39" />
<rect x="18" y="21" width="4" height="1" fill="#743F39" />
<rect x="23" y="21" width="1" height="1" fill="#181425" />
<rect x="15" y="22" width="8" height="1" fill="#181425" />
</svg>