<?xml version="1.0" encoding="UTF-8" ?>
<svg version="1.1" width="32" height="32" xmlns="http://www.w3.org/2000/svg" shape-rendering="crispEdges">
<rect x="8" y="3" width="3" height="1" fill="#181425" />
<rect x="12" y="3" width="3" height="1" fill="#181425" />
<rect x="7" y="4" width="1" height="2" fill="#181425" />
<rect x="8" y="4" width="3" height="4" fill="#FFFFFF" />
<rect x="11" y="4" width="1" height="1" fill="#181425" />
<rect x="12" y="4" width="1" height="4" fill="#FFFFFF" />
<rect x="13" y="4" width="2" height="1" fill="#EAD4AA" />
<rect x="15" y="4" width="2" height="1" fill="#181425" />
<rect x="11" y="5" width="1" height="3" fill="#FFFFFF" />
<rect x="13" y="5" width="2" height="3" fill="#FFFFFF" />
<rect x="15" y="5" width="2" height="1" fill="#EAD4AA" />
<rect x="17" y="5" width="1" height="1" fill="#181425" />
<rect x="6" y="6" width="1" height="3" fill="#181425" />
<rect x="7" y="6" width="1" height="2" fill="#FFFFFF" />
<rect x="15" y="6" width="1" height="2" fill="#FFFFFF" />
<rect x="16" y="6" width="2" height="1" fill="#EAD4AA" />
<rect x="18" y="6" width="2" height="1" fill="#181425" />
<rect x="16" y="7" width="1" height="1" fill="#FFFFFF" />
<rect x="17" y="7" width="3" height="1" fill="#EAD4AA" />
<rect x="20" y="7" width="1" height="2" fill="#181425" />
<rect x="5" y="8" width="1" height="20" fill="#181425" />
<rect x="7" y="8" width="2" height="1" fill="#181425" />
<rect x="9" y="8" width="2" height="1" fill="#FFFFFF" />
<rect x="11" y="8" width="9" height="1" fill="#181425" />
<rect x="21" y="8" width="1" height="20" fill="#181425" />
<rect x="24" y="8" width="2" height="1" fill="#181425" />
<rect x="6" y="9" width="2" height="3" fill="#743F39" />
<rect x="8" y="9" width="1" height="2" fill="#181425" />
<rect x="9" y="9" width="1" height="2" fill="#FFFFFF" />
<rect x="10" y="9" width="1" height="2" fill="#181425" />
<rect x="11" y="9" width="2" height="3" fill="#743F39" />
<rect x="13" y="9" width="1" height="4" fill="#181425" />
<rect x="14" y="9" width="3" height="3" fill="#743F39" />
<rect x="17" y="9" width="1" height="4" fill="#181425" />
<rect x="18" y="9" width="2" height="3" fill="#743F39" />
<rect x="20" y="9" width="1" height="3" fill="#3F2832" />
<rect x="22" y="9" width="2" height="1" fill="#181425" />
<rect x="24" y="9" width="2" height="4" fill="#B86F50" />
<rect x="26" y="9" width="1" height="3" fill="#181425" />
<rect x="22" y="10" width="2" height="2" fill="#B86F50" />
<rect x="8" y="11" width="1" height="1" fill="#743F39" />
<rect x="9" y="11" width="1" height="2" fill="#181425" />
<rect x="10" y="11" width="1" height="1" fill="#743F39" />
<rect x="6" y="12" width="3" height="1" fill="#181425" />
<rect x="10" y="12" width="3" height="1" fill="#181425" />
<rect x="14" y="12" width="3" height="1" fill="#181425" />
<rect x="18" y="12" width="3" height="1" fill="#181425" />
<rect x="22" y="12" width="2" height="1" fill="#181425" />
<rect x="26" y="12" width="1" height="8" fill="#B86F50" />
<rect x="27" y="12" width="1" height="8" fill="#181425" />
<rect x="6" y="13" width="14" height="1" fill="#C0CBDC" />
<rect x="20" y="13" width="1" height="1" fill="#5A6988" />
<rect x="24" y="13" width="1" height="1" fill="#181425" />
<rect x="25" y="13" width="1" height="1" fill="#B86F50" />
<rect x="6" y="14" width="15" height="1" fill="#181425" />
<rect x="25" y="14" width="1" height="5" fill="#181425" />
<rect x="6" y="15" width="3" height="7" fill="#743F39" />
<rect x="9" y="15" width="1" height="8" fill="#181425" />
<rect x="10" y="15" width="3" height="7" fill="#743F39" />
<rect x="13" y="15" width="1" height="8" fill="#181425" />
<rect x="14" y="15" width="3" height="7" fill="#743F39" />
<rect x="17" y="15" width="1" height="8" fill="#181425" />
<rect x="18" y="15" width="2" height="7" fill="#743F39" />
<rect x="20" y="15" width="1" height="7" fill="#3F2832" />
<rect x="24" y="19" width="1" height="2" fill="#181425" />
<rect x="25" y="19" width="1" height="3" fill="#B86F50" />
<rect x="26" y="20" width="1" height="2" fill="#181425" />
<rect x="23" y="21" width="1" height="1" fill="#181425" />
<rect x="24" y="21" width="1" height="4" fill="#B86F50" />
<rect x="6" y="22" width="3" height="1" fill="#181425" />
<rect x="10" y="22" width="3" height="1" fill="#181425" />
<rect x="14" y="22" width="3" height="1" fill="#181425" />
<rect x="18" y="22" width="3" height="1" fill="#181425" />
<rect x="22" y="22" width="1" height="1" fill="#181425" />
<rect x="23" y="22" width="1" height="3" fill="#B86F50" />
<rect x="25" y="22" width="1" height="3" fill="#181425" />
<rect x="6" y="23" width="14" height="1" fill="#C0CBDC" />
<rect x="20" y="23" width="1" height="1" fill="#5A6988" />
<rect x="22" y="23" width="1" height="1" fill="#B86F50" />
<rect x="6" y="24" width="15" height="1" fill="#181425" />
<rect x="22" y="24" width="1" height="1" fill="#181425" />
<rect x="6" y="25" width="3" height="3" fill="#743F39" />
<rect x="9" y="25" width="1" height="4" fill="#181425" />
<rect x="10" y="25" width="3" height="3" fill="#743F39" />
<rect x="13" y="25" width="1" height="4" fill="#181425" />
<rect x="14" y="25" width="3" height="3" fill="#743F39" />
<rect x="17" y="25" width="1" height="4" fill="#181425" />
<rect x="18" y="25" width="2" height="3" fill="#743F39" />
<rect x="20" y="25" width="1" height="3" fill="#3F2832" />
<rect x="23" y="25" width="2" height="1" fill="#181425" />
<rect x="6" y="28" width="3" height="1" fill="#181425" />
<rect x="10" y="28" width="3" height="1" fill="#181425" />
<rect x="14" y="28" width="3" height="1" fill="#181425" />
<rect x="18" y="28" width="3" height="1" fill="#181425" />
</svg>