<?xml version="1.0" encoding="UTF-8" ?>
<svg version="1.1" width="32" height="32" xmlns="http://www.w3.org/2000/svg" shape-rendering="crispEdges">
<rect x="11" y="9" width="9" height="1" fill="#181425" />
<rect x="10" y="10" width="1" height="1" fill="#181425" />
<rect x="11" y="10" width="9" height="1" fill="#FFFFFF" />
<rect x="20" y="10" width="1" height="1" fill="#181425" />
<rect x="9" y="11" width="1" height="8" fill="#181425" />
<rect x="10" y="11" width="2" height="1" fill="#FFFFFF" />
<rect x="12" y="11" width="7" height="1" fill="#743F39" />
<rect x="19" y="11" width="2" height="1" fill="#FFFFFF" />
<rect x="21" y="11" width="1" height="2" fill="#181425" />
<rect x="10" y="12" width="1" height="5" fill="#FFFFFF" />
<rect x="11" y="12" width="2" height="1" fill="#743F39" />
<rect x="13" y="12" width="3" height="1" fill="#C28569" />
<rect x="16" y="12" width="1" height="2" fill="#743F39" />
<rect x="17" y="12" width="1" height="1" fill="#C28569" />
<rect x="18" y="12" width="2" height="1" fill="#743F39" />
<rect x="20" y="12" width="1" height="2" fill="#FFFFFF" />
<rect x="22" y="12" width="2" height="1" fill="#181425" />
<rect x="11" y="13" width="1" height="1" fill="#3F2832" />
<rect x="12" y="13" width="4" height="1" fill="#743F39" />
<rect x="17" y="13" width="2" height="1" fill="#743F39" />
<rect x="19" y="13" width="1" height="1" fill="#3F2832" />
<rect x="21" y="13" width="3" height="1" fill="#FFFFFF" />
<rect x="24" y="13" width="1" height="4" fill="#181425" />
<rect x="11" y="14" width="1" height="4" fill="#FFFFFF" />
<rect x="12" y="14" width="7" height="1" fill="#3F2832" />
<rect x="19" y="14" width="1" height="3" fill="#FFFFFF" />
<rect x="20" y="14" width="1" height="4" fill="#C0CBDC" />
<rect x="21" y="14" width="2" height="2" fill="#181425" />
<rect x="23" y="14" width="1" height="3" fill="#FFFFFF" />
<rect x="12" y="15" width="7" height="3" fill="#FFFFFF" />
<rect x="21" y="16" width="1" height="1" fill="#181425" />
<rect x="22" y="16" width="1" height="2" fill="#C0CBDC" />
<rect x="10" y="17" width="1" height="1" fill="#C0CBDC" />
<rect x="19" y="17" width="1" height="2" fill="#C0CBDC" />
<rect x="21" y="17" width="1" height="1" fill="#C0CBDC" />
<rect x="23" y="17" width="1" height="1" fill="#181425" />
<rect x="10" y="18" width="1" height="1" fill="#181425" />
<rect x="11" y="18" width="1" height="1" fill="#C0CBDC" />
<rect x="12" y="18" width="5" height="1" fill="#FFFFFF" />
<rect x="17" y="18" width="2" height="2" fill="#C0CBDC" />
<rect x="20" y="18" width="3" height="1" fill="#181425" />
<rect x="8" y="19" width="1" height="2" fill="#181425" />
<rect x="9" y="19" width="2" height="2" fill="#C0CBDC" />
<rect x="11" y="19" width="1" height="1" fill="#181425" />
<rect x="12" y="19" width="5" height="1" fill="#C0CBDC" />
<rect x="19" y="19" width="1" height="1" fill="#181425" />
<rect x="20" y="19" width="2" height="2" fill="#C0CBDC" />
<rect x="22" y="19" width="1" height="2" fill="#181425" />
<rect x="11" y="20" width="1" height="2" fill="#C0CBDC" />
<rect x="12" y="20" width="7" height="1" fill="#181425" />
<rect x="19" y="20" width="1" height="2" fill="#C0CBDC" />
<rect x="9" y="21" width="2" height="1" fill="#181425" />
<rect x="12" y="21" width="7" height="1" fill="#C0CBDC" />
<rect x="20" y="21" width="2" height="1" fill="#181425" />
<rect x="11" y="22" width="9" height="1" fill="#181425" />
</svg>